# xmcd
#
# Track frame offsets:
#	150
#	12756
#	26991
#	41258
#	54791
#	67572
#	82166
#	94751
#	111228
#	129045
#	144979
#	164582
#	181012
#	191492
#	204212
#	222366
#	232200
#
# Disc length: 3292 seconds
#
# Revision: 327684
# Processed by: cddbd v1.5.2PL0 Copyright (c) Steve Scherf et al.
# Submitted via: EZCDAudioConverter 9.0.4.1
#
DISCID=da0cda11
DTITLE=Various Artist - '70s Country: Southern Nights [CD1]
DYEAR=2018
DGENRE=Country
TTITLE0=Linda Ronstadt - Love Is A Rose
TTITLE1=Bellamy Brothers - If I Said You Have A Beautiful Body Would You Hold 
TTITLE1=It Against Me
TTITLE2=Hank Williams Jr - Whiskey Bent And Hell Bound
TTITLE3=John Anderson - Your Lying Blue Eyes
TTITLE4=Eddie Rabbitt - Every Which Way But Loose
TTITLE5=Melba Montgomery - No Charge
TTITLE6=Vern Gosdin - Till The End
TTITLE7=Gordon Lightfoot - Sundown
TTITLE8=Linda Ronstadt - Blue Bayou
TTITLE9=Olivia Newton-John - Have You Never Been Mellow
TTITLE10=Eddie Rabbitt - Suspicions
TTITLE11=Debby Boone - You Light Up My Life
TTITLE12=Eric Weissberg and Steve Mandell - Dueling Banjos
TTITLE13=Willie Nelson - Bloody Mary Morning
TTITLE14=Hank Williams Jr - Family Tradition
TTITLE15=Linda Ronstadt - When Will I Be Loved
TTITLE16=Bellamy Brothers - Let Your Love Flow
EXTD=
EXTT0=
EXTT1=
EXTT2=
EXTT3=
EXTT4=
EXTT5=
EXTT6=
EXTT7=
EXTT8=
EXTT9=
EXTT10=
EXTT11=
EXTT12=
EXTT13=
EXTT14=
EXTT15=
EXTT16=
PLAYORDER=
